HIERARCHY
ROOT hip
{
	OFFSET 0.000000 0.000000 0.000000
	CHANNELS 6 Xposition Yposition Zposition Xrotation Zrotation Yrotation 
	JOINT abdomen
	{
		OFFSET 0.000000 3.422050 0.000000
		CHANNELS 3 Xrotation Zrotation Yrotation 
		JOINT chest
		{
			OFFSET 0.000000 8.486693 -0.684411
			CHANNELS 3 Xrotation Zrotation Yrotation 
			JOINT neck
			{
				OFFSET 0.000000 10.266162 -0.273764
				CHANNELS 3 Xrotation Zrotation Yrotation 
				JOINT head
				{
					OFFSET 0.000000 3.148285 0.000000
					CHANNELS 3 Xrotation Zrotation Yrotation 
					End Site
					{
						OFFSET 0.000000 3.148289 0.000000
					}
				}
			}
			JOINT lCollar
			{
				OFFSET 3.422053 6.707223 -0.821293
				CHANNELS 3 Yrotation Zrotation Xrotation 
				JOINT lShldr
				{
					OFFSET 3.285171 0.000000 0.000000
					CHANNELS 3 Zrotation Yrotation Xrotation 
					JOINT lForeArm
					{
						OFFSET 10.129278 0.000000 0.000000
						CHANNELS 3 Yrotation Zrotation Xrotation 
						JOINT lHand
						{
							OFFSET 8.486692 0.000000 0.000000
							CHANNELS 3 Zrotation Yrotation Xrotation 
							End Site
							{
								OFFSET 4.106464 0.000000 0.000000
							}
						}
					}
				}
			}
			JOINT rCollar
			{
				OFFSET -3.558935 6.707223 -0.821293
				CHANNELS 3 Yrotation Zrotation Xrotation 
				JOINT rShldr
				{
					OFFSET -3.148289 0.000000 0.000000
					CHANNELS 3 Zrotation Yrotation Xrotation 
					JOINT rForeArm
					{
						OFFSET -10.266159 0.000000 0.000000
						CHANNELS 3 Yrotation Zrotation Xrotation 
						JOINT rHand
						{
							OFFSET -8.349810 0.000000 0.000000
							CHANNELS 3 Zrotation Yrotation Xrotation 
							End Site
							{
								OFFSET -4.106464 0.000000 0.000000
							}
						}
					}
				}
			}
		}
	}
	JOINT lThigh
	{
		OFFSET 5.338403 -1.642589 1.368821
		CHANNELS 3 Xrotation Zrotation Yrotation 
		JOINT lShin
		{
			OFFSET -2.053232 -20.121670 0.000000
			CHANNELS 3 Xrotation Zrotation Yrotation 
			JOINT lFoot
			{
				OFFSET 0.000000 -19.300380 -1.231939
				CHANNELS 3 Xrotation Yrotation Zrotation 
				End Site
				{
					OFFSET 0.000000 -2.463878 4.653993
				}
			}
		}
	}
	JOINT rThigh
	{
		OFFSET -5.338403 -1.642589 1.368821
		CHANNELS 3 Xrotation Zrotation Yrotation 
		JOINT rShin
		{
			OFFSET 2.053232 -20.121670 0.000000
			CHANNELS 3 Xrotation Zrotation Yrotation 
			JOINT rFoot
			{
				OFFSET 0.000000 -19.300380 -1.231939
				CHANNELS 3 Xrotation Yrotation Zrotation 
				End Site
				{
					OFFSET 0.000000 -2.463878 4.653993
				}
			}
		}
	}
}
MOTION
Frames: 13
Frame Time: 0.049897
0.000000 43.528500 0.000000 0.000000 0.000000 0.000000 0.000000 0.000000 0.000000 0.000000 0.000000 0.000000 0.000000 0.000000 0.000000 0.000000 0.000000 0.000000 0.000000 0.000000 0.000000 0.000000 0.000000 0.000000 0.000000 0.000000 0.000000 0.000000 0.000000 0.000000 0.000000 0.000000 0.000000 0.000000 0.000000 0.000000 0.000000 0.000000 0.000000 0.000000 0.000000 0.000000 0.000000 0.000000 0.000000 0.000000 0.000000 0.000000 0.000000 0.000000 0.000000 0.000000 0.000000 0.000000 0.000000 0.000000 0.000000 0.000000 0.000000 0.000000 
0.501617 18.173935 2.532150 16.002346 0.000000 -180.000000 64.287369 -1.475437 -1.007683 40.279030 -1.005520 -0.452574 -19.001074 0.000000 0.000000 -2.002196 0.000000 0.000000 7.023551 -7.937992 -21.504272 -117.858795 -49.901112 93.863617 -28.478579 45.859985 2.425039 22.535328 -0.133574 21.064781 -8.100331 7.435662 -20.549538 115.599052 50.690445 92.176788 30.448631 -46.457108 3.528810 -17.626574 -2.878546 17.954161 -16.084455 39.184109 -18.553984 110.555336 5.572046 -1.195563 48.083740 -24.749525 -12.163152 -15.086768 -37.678349 16.472595 112.469482 -5.702954 1.004368 45.628933 22.859964 13.340184 
0.501617 18.105850 2.607579 14.402330 0.000000 -180.000000 62.314972 -1.475419 -1.007718 39.613468 -1.005583 -0.452442 -19.309103 0.000000 0.000000 -2.514678 0.000000 0.000000 6.872396 -7.752186 -21.141636 -117.954704 -50.166679 93.850258 -26.546364 44.775372 1.175221 23.079956 -0.671557 20.655617 -7.921400 7.266100 -20.216227 115.781342 50.901520 92.224716 28.411764 -45.414982 2.224607 -18.110027 -2.243078 17.658859 -18.245279 39.174374 -20.066565 111.092674 4.892327 -0.991959 48.152180 -25.413013 -11.938195 -17.258804 -37.715904 17.936464 113.008514 -5.037047 0.826200 45.697079 23.512728 13.092056 
0.501617 18.037766 2.683007 12.800989 0.000000 -180.000000 60.332962 -1.475401 -1.007753 38.947536 -1.005644 -0.452309 -19.617283 0.000000 0.000000 -3.027889 0.000000 0.000000 6.720089 -7.567288 -20.778576 -118.051064 -50.432274 93.837532 -24.676998 43.658558 -0.004006 23.629007 -1.206102 20.240913 -7.741499 7.097534 -19.882425 115.964798 51.112541 92.273994 26.439610 -44.338406 0.993012 -18.597010 -1.609558 17.358046 -20.409679 39.120243 -21.580856 111.627594 4.210097 -0.794766 48.223934 -26.076637 -11.710958 -19.437778 -37.709446 19.405418 113.545464 -4.368894 0.654338 45.768726 24.165600 12.841682 
0.501617 17.969681 2.758435 11.195184 0.000000 -180.000000 58.342472 -1.475385 -1.007790 38.281296 -1.005703 -0.452176 -19.925615 0.000000 0.000000 -3.541805 0.000000 0.000000 6.566630 -7.383307 -20.415089 -118.147873 -50.697903 93.825424 -22.868347 42.511951 -1.114683 24.182489 -1.737059 19.820665 -7.560642 6.929976 -19.548145 116.149376 51.323452 92.324539 24.530352 -43.229965 -0.167735 -19.087578 -0.978128 17.051685 -22.573854 39.021587 -23.093088 112.160179 3.525499 -0.603966 48.299110 -26.740351 -11.481367 -21.619986 -37.658657 20.875801 114.080360 -3.698629 0.488770 45.843914 24.818512 12.588976 
0.501617 17.901596 2.833863 9.585543 0.000000 -180.000000 56.344669 -1.475371 -1.007827 37.614792 -1.005761 -0.452042 -20.234097 0.000000 0.000000 -4.056410 0.000000 0.000000 6.412035 -7.200264 -20.051191 -118.245178 -50.963577 93.813972 -21.118134 41.337963 -2.159017 24.740419 -2.264280 19.394871 -7.378838 6.763445 -19.213402 116.335129 51.534283 92.376434 22.681923 -42.092178 -1.259636 -19.581785 -0.348926 16.739752 -24.734013 38.878460 -24.599506 112.690475 2.838678 -0.419544 48.377762 -27.404079 -11.249328 -23.801708 -37.563431 22.343939 114.613319 -3.026394 0.329481 45.922726 25.471395 12.333850 
0.501617 17.833511 2.909291 7.972673 0.000000 -180.000000 54.340721 -1.475357 -1.007865 36.948048 -1.005818 -0.451908 -20.542715 0.000000 0.000000 -4.571684 0.000000 0.000000 6.256307 -7.018171 -19.686888 -118.342957 -51.229286 93.803185 -19.423943 40.138874 -3.139327 25.302803 -2.787617 18.963533 -7.196093 6.597948 -18.878191 116.522057 51.745018 92.429688 20.892075 -40.927494 -2.284868 -20.079697 0.277906 16.422228 -26.886435 38.691105 -26.096424 113.218597 2.149776 -0.241483 48.459965 -28.067762 -11.014750 -25.979223 -37.423843 23.806160 115.144394 -2.352323 0.176460 46.005238 26.124193 12.076221 
0.501617 17.765427 2.984719 6.357222 0.000000 -180.000000 52.331814 -1.475345 -1.007903 36.281124 -1.005872 -0.451772 -20.851473 0.000000 0.000000 -5.087607 0.000000 0.000000 6.099458 -6.837042 -19.322180 -118.441216 -51.494995 93.793037 -17.783325 38.916950 -4.057993 25.869652 -3.306921 18.526661 -7.012415 6.433497 -18.542521 116.710190 51.955647 92.484283 19.158468 -39.738327 -3.245722 -20.581354 0.902227 16.099085 -29.027477 38.459957 -27.580240 113.744644 1.458941 -0.069770 48.545803 -28.731339 -10.777546 -28.148869 -37.240181 25.258854 115.673721 -1.676558 0.029693 46.091557 26.776850 11.815998 
0.501617 17.697342 3.060147 4.739816 0.000000 -180.000000 50.319191 -1.475334 -1.007942 35.614075 -1.005926 -0.451636 -21.160364 0.000000 0.000000 -5.604160 0.000000 0.000000 5.941494 -6.656891 -18.957077 -118.540001 -51.760746 93.783585 -16.193792 37.674370 -4.917422 26.440971 -3.822044 18.084261 -6.827813 6.270103 -18.206398 116.899521 52.166168 92.540260 17.478664 -38.526985 -4.144565 -21.086813 1.523894 15.770301 -31.153685 38.185673 -29.047522 114.268661 0.766315 0.095611 48.635365 -29.394728 -10.537613 -30.307104 -37.012928 26.698528 116.201340 -0.999235 -0.110830 46.181717 27.429279 11.553089 
0.501617 17.629257 3.135575 3.121100 0.000000 -180.000000 48.304073 -1.475324 -1.007981 34.946934 -1.005978 -0.451500 -21.469387 0.000000 0.000000 -6.121322 0.000000 0.000000 5.782424 -6.477733 -18.591583 -118.639305 -52.026520 93.774834 -14.652856 36.413223 -5.720016 27.016760 -4.332839 17.636347 -6.642295 6.107780 -17.869835 117.090126 52.376575 92.597672 15.850210 -37.295734 -4.983802 -21.596128 2.142767 15.435850 -33.261738 37.869041 -30.495003 114.790756 0.072044 0.254673 48.728756 -30.057894 -10.294855 -32.450527 -36.742756 28.121834 116.727348 -0.320494 -0.245122 46.275818 28.081423 11.287397 
0.501617 17.561172 3.211004 1.501718 0.000000 -180.000000 46.287708 -1.475316 -1.008020 34.279736 -1.006027 -0.451362 -21.778532 0.000000 0.000000 -6.639074 0.000000 0.000000 5.622259 -6.299581 -18.225706 -118.739128 -52.292278 93.766762 -13.158077 35.135567 -6.468153 27.597013 -4.839159 17.182930 -6.455874 5.946539 -17.532835 117.281982 52.586876 92.656494 14.270644 -36.046749 -5.765839 -22.109341 2.758703 15.095711 -35.348572 37.511055 -31.919647 115.311012 -0.623728 0.407429 48.826065 -30.720757 -10.049170 -34.575901 -36.430519 29.525583 117.251823 0.359529 -0.373192 46.373978 28.733231 11.018828 
0.501617 17.493086 3.286432 -0.117683 0.000000 180.000000 44.271336 -1.475309 -1.008060 33.612556 -1.006076 -0.451225 -22.087803 0.000000 0.000000 -7.157394 0.000000 0.000000 5.461008 -6.122450 -17.859453 -118.839470 -52.558056 93.759392 -11.707044 33.843342 -7.164157 28.181730 -5.340860 16.724033 -6.268557 5.786393 -17.195404 117.475128 52.797062 92.716766 12.737531 -34.782101 -6.493050 -22.626505 3.371557 14.749862 -37.411327 37.112827 -33.318630 115.829521 -1.320856 0.553891 48.927357 -31.383242 -9.800448 -36.680195 -36.077202 30.906807 117.774849 1.040694 -0.495049 46.476257 29.384623 10.747275 
0.501617 17.425001 3.361860 -1.736453 0.000000 180.000000 42.256214 -1.475303 -1.008100 32.945408 -1.006123 -0.451086 -22.397179 0.000000 0.000000 -7.676264 0.000000 0.000000 5.298679 -5.946354 -17.492836 -118.940384 -52.823841 93.752762 -10.297415 32.538433 -7.810293 28.770903 -5.837795 16.259684 -6.080352 5.627354 -16.857557 117.669571 53.007114 92.778519 11.248478 -33.503815 -7.167778 -23.147659 3.981188 14.398290 -39.447430 36.675640 -34.689430 116.346375 -2.019196 0.694070 49.032764 -32.045300 -9.548584 -38.760658 -35.684017 32.262794 118.296532 1.722862 -0.610703 46.582756 30.035532 10.472631 
